<?xml version="1.0" standalone="no"?>
<!DOCTYPE svg PUBLIC "-//W3C//DTD SVG 20010904//EN"
 "http://www.w3.org/TR/2001/REC-SVG-20010904/DTD/svg10.dtd">
<svg version="1.0" xmlns="http://www.w3.org/2000/svg"
 width="2048.000000pt" height="2048.000000pt" viewBox="0 0 2048.000000 2048.000000"
 preserveAspectRatio="xMidYMid meet">
<metadata>
Created by potrace 1.16, written by Peter Selinger 2001-2019
</metadata>
<g transform="translate(0.000000,2048.000000) scale(0.100000,-0.100000)"
fill="#000000" stroke="none">
<path d="M0 10240 l0 -10240 10240 0 10240 0 0 10240 0 10240 -10240 0 -10240
0 0 -10240z m4675 3472 c6 -4 56 -65 110 -137 55 -71 187 -240 294 -375 107
-135 272 -344 366 -465 94 -121 227 -290 296 -376 68 -85 202 -254 297 -375
95 -120 226 -286 292 -369 66 -82 152 -191 190 -242 39 -51 75 -95 80 -98 9
-6 136 143 285 335 49 63 110 140 135 170 26 30 105 129 176 220 71 91 155
197 186 235 138 170 396 495 643 809 66 84 174 219 240 300 66 81 159 198 206
259 l85 112 787 3 c433 1 787 0 787 -4 0 -5 -181 -237 -385 -492 -55 -69 -147
-184 -204 -256 -57 -72 -115 -145 -130 -162 -48 -58 -169 -208 -236 -294 -77
-98 -200 -252 -486 -605 -203 -251 -304 -377 -671 -840 -109 -137 -222 -279
-251 -314 -29 -36 -83 -104 -122 -151 -38 -48 -96 -119 -127 -158 -32 -39 -58
-75 -58 -80 0 -15 92 -137 146 -195 46 -48 242 -286 339 -410 63 -81 117 -148
297 -368 92 -112 269 -332 393 -488 124 -156 267 -333 318 -394 50 -60 125
-154 167 -207 87 -112 295 -374 379 -475 32 -38 168 -208 303 -377 135 -169
266 -331 292 -360 25 -29 46 -57 46 -61 0 -4 -356 -8 -792 -7 -730 0 -793 2
-811 17 -10 10 -57 67 -105 128 -47 60 -109 137 -137 171 -27 33 -131 163
-230 289 -182 230 -387 487 -746 935 -108 135 -223 280 -255 322 -32 42 -115
145 -184 230 -68 84 -161 199 -206 255 l-83 102 -16 -25 c-8 -13 -60 -79 -113
-147 -154 -192 -348 -439 -577 -732 -115 -149 -275 -350 -355 -449 -80 -98
-227 -285 -327 -415 -101 -130 -213 -274 -250 -321 -37 -47 -116 -147 -176
-222 l-108 -138 -804 0 c-443 0 -805 2 -805 5 0 3 40 52 88 108 48 56 146 174
217 262 71 88 178 221 239 295 60 74 241 299 401 500 161 201 345 430 410 510
65 80 178 219 251 310 74 91 164 202 201 247 38 44 80 96 94 115 26 32 147
184 331 414 47 60 116 145 152 189 251 302 306 372 306 387 0 4 -93 125 -207
267 -115 143 -271 339 -348 437 -77 97 -183 230 -235 294 -52 65 -167 209
-255 320 -88 112 -194 244 -235 294 -42 50 -98 120 -125 156 -27 36 -81 103
-120 150 -39 47 -139 171 -221 275 -82 105 -186 233 -229 286 -44 53 -132 160
-195 239 -247 308 -450 557 -484 594 -20 21 -36 40 -36 42 0 7 1605 4 1615 -4z
m12755 -585 l0 -593 -38 -29 c-36 -28 -250 -212 -735 -630 -227 -195 -339
-292 -673 -575 -120 -102 -272 -232 -339 -290 -66 -58 -149 -130 -185 -160
-36 -30 -103 -89 -150 -130 -77 -69 -186 -162 -425 -365 -45 -38 -145 -124
-221 -189 -346 -298 -415 -356 -499 -426 -49 -41 -126 -106 -171 -145 -44 -38
-168 -144 -274 -235 -106 -91 -268 -230 -360 -310 -91 -80 -249 -215 -350
-300 -101 -85 -225 -190 -274 -233 -50 -43 -142 -121 -204 -174 -62 -52 -111
-97 -109 -100 3 -2 1130 -4 2506 -3 l2501 0 0 -610 0 -610 -3347 2 -3348 3 0
725 0 725 65 48 c71 53 352 281 514 417 55 47 166 140 246 206 292 242 684
570 740 619 62 54 126 108 285 240 55 46 163 136 240 200 77 65 246 205 375
313 129 107 273 227 319 266 89 76 231 194 401 334 109 89 368 307 645 542 88
75 234 196 324 270 91 74 284 234 429 355 l265 220 -2424 5 -2424 5 -3 590
c-1 325 0 595 2 602 4 10 729 12 3351 12 l3345 0 0 -592z"/>
</g>
</svg>
